#!OML:ASF I:\Actors\actors\Patient Classification 2\Patient 1\Session 1\actor1.ASF
:FULLY-SPECIFIED
:DEGREES
458
root -0.78398 18.3029 5.18013 8.10956 0.506962 0.694318
lowerback 16.6771 0.86272 0.466591
upperback 2.438 1.27933 0.819777
thorax -6.7474 0.618716 0.3257
lowerneck -24.5074 -4.43039 -0.948323
upperneck 15.7487 -7.08233 6.2629
head 9.24359 -2.63085 1.27101
rclavicle 3.97569e-015 3.57812e-015
rhumerus 6.0211 21.8945 -89.5358
rradius 51.2457
rwrist -35.8383
rhand -7.99138 -61.0971
rfingers 7.12502
rthumb 17.9171 450.292
lclavicle 3.97569e-015 3.57812e-015
lhumerus 0.187463 -30.2591 97.5566
lradius 64.5854
lwrist 63.0168
lhand -27.7253 -0.287702
lfingers 7.12502
lthumb -1.12061 29.6891
rfemur 7.04498 1.05551 13.5263
rtibia -18.3184
rfoot -6.54472 -19.2763
rtoes 2.1517
lfemur 3.63479 -3.49976 -14.0823
ltibia -12.1963
lfoot -1.02034 15.6037
ltoes -16.7171
459
root -0.781964 18.3032 5.19485 7.9979 0.538245 0.698407
lowerback 16.5206 0.827449 0.630686
upperback 2.37774 1.27331 0.979716
thorax -6.72663 0.613865 0.406043
lowerneck -24.5444 -4.38079 -0.831421
upperneck 15.3934 -6.95594 5.93609
head 9.10095 -2.61295 1.15996
rclavicle -5.1684e-015 -9.93923e-015
rhumerus 5.6698 21.6471 -89.6826
rradius 51.377
rwrist -36.1708
rhand -7.9664 -61.0186
rfingers 7.12502
rthumb 17.9412 450.211
lclavicle -5.1684e-015 -9.93923e-015
lhumerus 0.211252 -30.5122 97.5204
lradius 64.3684
lwrist 62.4964
lhand -27.2025 0.100298
lfingers 7.12502
lthumb -0.615633 30.0792
rfemur 7.22059 1.15277 13.5156
rtibia -18.2887
rfoot -6.65214 -19.3176
rtoes 2.07113
lfemur 3.78982 -3.4582 -14.1086
ltibia -12.1396
lfoot -1.10681 15.5264
ltoes -16.7415
460
root -0.778674 18.3034 5.2108 7.91218 0.607236 0.68177
lowerback 16.2751 0.76578 0.827049
upperback 2.29797 1.23738 1.14962
thorax -6.67736 0.594003 0.486055
lowerneck -24.5572 -4.28399 -0.656567
upperneck 15.0813 -6.77652 5.54548
head 8.96396 -2.57289 1.02653
rclavicle -8.34896e-015 -5.56597e-015
rhumerus 5.30342 21.3481 -89.8728
rradius 51.5292
rwrist -36.5185
rhand -7.93953 -60.9263
rfingers 7.12502
rthumb 17.967 450.116
lclavicle -8.34896e-015 -5.56597e-015
lhumerus 0.229867 -30.7892 97.4608
lradius 64.2053
lwrist 61.8898
lhand -26.7137 0.597215
lfingers 7.12502
lthumb -0.143616 30.5769
rfemur 7.37653 1.29566 13.5167
rtibia -18.2547
rfoot -6.82423 -19.4043
rtoes 2.00404
lfemur 3.91053 -3.44434 -14.1144
ltibia -12.0993
lfoot -1.10733 15.4613
ltoes -16.8602
461
root -0.774696 18.3017 5.2284 7.79731 0.674344 0.674608
lowerback 16.0186 0.694284 1.02801
upperback 2.21235 1.18818 1.32211
thorax -6.62791 0.567592 0.568751
lowerneck -24.524 -4.23293 -0.548965
upperneck 14.7868 -6.63428 5.12892
head 8.82907 -2.55708 0.890408
rclavicle -5.96354e-015 -5.56597e-015
rhumerus 5.04721 20.6079 -90.04
rradius 51.9991
rwrist -37.9796
rhand -6.92052 -63.2247
rfingers 7.12502
rthumb 18.9473 452.322
lclavicle -5.96354e-015 -5.56597e-015
lhumerus 0.261318 -31.0584 97.4162
lradius 64.0193
lwrist 61.1271
lhand -26.1231 1.13849
lfingers 7.12502
lthumb 0.426809 31.1178
rfemur 7.57836 1.4041 13.5044
rtibia -18.2346
rfoot -6.98203 -19.4398
rtoes 2.10943
lfemur 4.06218 -3.43301 -14.1377
ltibia -12.0582
lfoot -1.12219 15.3427
ltoes -16.8676
462
root -0.77161 18.2978 5.24671 7.65341 0.705744 0.702911
lowerback 15.7979 0.628218 1.17084
upperback 2.1202 1.13568 1.49263
thorax -6.60597 0.540801 0.682169
lowerneck -24.532 -4.20574 -0.563478
upperneck 14.5083 -6.50605 4.8045
head 8.71614 -2.54248 0.802784
rclavicle -1.61016e-014 7.95139e-016
rhumerus 4.70385 20.3562 -90.128
rradius 52.1761
rwrist -38.4518
rhand -6.73378 -62.7679
rfingers 7.12502
rthumb 19.1268 451.847
lclavicle -1.61016e-014 7.95139e-016
lhumerus 0.315216 -31.2985 97.3614
lradius 63.7898
lwrist 60.2166
lhand -25.2903 1.64607
lfingers 7.12502
lthumb 1.23114 31.6223
rfemur 7.81622 1.50733 13.4618
rtibia -18.2277
rfoot -7.09269 -19.4571
rtoes 2.31225
lfemur 4.25284 -3.46471 -14.1937
ltibia -12.0017
lfoot -1.21914 15.308
ltoes -16.859
463
root -0.765551 18.2944 5.26534 7.54979 0.742535 0.767838
lowerback 15.5287 0.553509 1.31013
upperback 1.99104 1.06859 1.64173
thorax -6.59617 0.506669 0.777813
lowerneck -24.5302 -4.1603 -0.646326
upperneck 14.2699 -6.36115 4.61039
head 8.62354 -2.50759 0.772813
rclavicle 1.47101e-014 -4.77083e-015
rhumerus 4.11149 20.4512 -90.2706
rradius 52.1462
rwrist -37.9871
rhand -7.40743 -59.366
rfingers 7.12502
rthumb 18.4789 631.492
lclavicle 1.47101e-014 -4.77083e-015
lhumerus 0.386516 -31.6252 97.27
lradius 63.5229
lwrist 59.1455
lhand -24.2481 2.09968
lfingers 7.12502
lthumb 2.23777 32.0677
rfemur 8.00881 1.55521 13.3724
rtibia -18.212
rfoot -7.15919 -19.4653
rtoes 2.29672
lfemur 4.39897 -3.57043 -14.2936
ltibia -11.9526
lfoot -1.31199 15.381
ltoes -16.737
464
root -0.757369 18.2926 5.28621 7.41143 0.738366 0.819492
lowerback 15.2419 0.496267 1.49196
upperback 1.8415 1.02817 1.75533
thorax -6.5967 0.483818 0.805815
lowerneck -24.4117 -4.12213 -0.662245
upperneck 14.0599 -6.24449 4.38275
head 8.51938 -2.48668 0.718283
rclavicle 1.39149e-015 1.03368e-014
rhumerus 3.49284 19.4628 -90.556
rradius 53.0327
rwrist -39.7293
rhand -6.28147 -61.3862
rfingers 7.12502
rthumb 19.5618 810.422
lclavicle 1.39149e-015 1.03368e-014
lhumerus 0.464296 -32.2028 97.1236
lradius 63.2067
lwrist 57.8377
lhand -23.1181 2.23724
lfingers 7.12502
lthumb 3.32901 32.191
rfemur 8.23199 1.60552 13.2874
rtibia -18.1881
rfoot -7.21752 -19.4419
rtoes 2.11503
lfemur 4.60875 -3.65284 -14.394
ltibia -11.9209
lfoot -1.41981 15.4504
ltoes -16.2624
465
root -0.750354 18.2905 5.3091 7.22106 0.66154 0.807635
lowerback 14.9801 0.453897 1.67446
upperback 1.70135 1.00837 1.89041
thorax -6.60125 0.471079 0.851645
lowerneck -24.3175 -4.09206 -0.653451
upperneck 13.9292 -6.12832 4.03442
head 8.44143 -2.4753 0.618085
rclavicle 0 -1.27222e-014
rhumerus 2.64859 18.9754 -90.7685
rradius 53.7916
rwrist -40.771
rhand -5.8587 -60.7954
rfingers 7.12502
rthumb 19.9682 990.211
lclavicle 0 -1.27222e-014
lhumerus 0.573728 -32.9678 96.9237
lradius 62.8087
lwrist 56.0259
lhand -21.7576 1.7963
lfingers 7.12502
lthumb 4.6428 31.7254
rfemur 8.49102 1.7368 13.2749
rtibia -18.1539
rfoot -7.31474 -19.406
rtoes 1.98666
lfemur 4.91177 -3.63935 -14.4336
ltibia -11.8937
lfoot -1.56847 15.4771
ltoes -15.9285
466
root -0.742788 18.2869 5.33236 7.03155 0.572865 0.805116
lowerback 14.6733 0.419429 1.77806
upperback 1.58613 0.986121 2.06697
thorax -6.55602 0.46004 0.986656
lowerneck -24.3313 -4.03352 -0.672002
upperneck 13.8776 -5.95363 3.60691
head 8.40545 -2.44287 0.501631
rclavicle -7.95139e-015 5.56597e-015
rhumerus 1.58578 18.928 -90.8465
rradius 54.4715
rwrist -41.2424
rhand -6.30207 -57.3205
rfingers 7.12502
rthumb 19.542 993.642
lclavicle -7.95139e-015 5.56597e-015
lhumerus 0.771216 -33.8661 96.6854
lradius 62.3771
lwrist 53.9033
lhand -20.1195 1.19815
lfingers 7.12502
lthumb 6.22447 31.0867
rfemur 8.73091 1.84312 13.2515
rtibia -18.0882
rfoot -7.41087 -19.3323
rtoes 1.84349
lfemur 5.22384 -3.57803 -14.4901
ltibia -11.8803
lfoot -1.72315 15.4796
ltoes -15.7783
467
root -0.735245 18.2824 5.35746 6.80911 0.542222 0.84656
lowerback 14.3255 0.387937 1.80531
upperback 1.48849 0.955926 2.28541
thorax -6.47091 0.447997 1.21058
lowerneck -24.2877 -3.98279 -0.750721
upperneck 13.8064 -5.75608 3.1133
head 8.35321 -2.4114 0.376626
rclavicle 9.93923e-015 -1.74931e-014
rhumerus 0.500702 18.4599 -90.7188
rradius 55.6835
rwrist -42.9496
rhand -6.10957 -56.306
rfingers 7.12502
rthumb 19.727 994.675
lclavicle 9.93923e-015 -1.74931e-014
lhumerus 1.01807 -34.9836 96.4506
lradius 62.0706
lwrist 51.8592
lhand -18.6193 0.904398
lfingers 7.12502
lthumb 7.67263 30.7452
rfemur 9.01966 1.93243 13.1896
rtibia -17.9885
rfoot -7.53566 -19.2821
rtoes 1.69585
lfemur 5.57468 -3.52393 -14.5902
ltibia -11.8903
lfoot -1.84581 15.4066
ltoes -15.5474
468
root -0.728653 18.278 5.38501 6.56922 0.588199 0.870977
lowerback 14.0046 0.328932 1.83467
upperback 1.34277 0.893766 2.53477
thorax -6.45149 0.420457 1.47186
lowerneck -24.0407 -3.8787 -0.882494
upperneck 13.6799 -5.46467 2.59787
head 8.24935 -2.34392 0.269547
rclavicle 1.19271e-015 1.35174e-014
rhumerus -0.737277 17.8993 -90.4891
rradius 57.1515
rwrist -45.0344
rhand -5.75233 -56.2088
rfingers 7.12502
rthumb 20.0704 994.808
lclavicle 1.19271e-015 1.35174e-014
lhumerus 1.20207 -36.3912 96.2069
lradius 61.8973
lwrist 49.6805
lhand -17.4533 0.917005
lfingers 7.12502
lthumb 8.79789 30.7136
rfemur 9.35207 2.06276 13.1638
rtibia -17.8702
rfoot -7.78825 -19.3032
rtoes 1.79208
lfemur 5.93341 -3.56931 -14.6603
ltibia -11.8868
lfoot -1.92792 15.3097
ltoes -15.632
469
root -0.721068 18.274 5.41498 6.35527 0.689814 0.857646
lowerback 13.6692 0.240174 1.93434
upperback 1.12836 0.802666 2.75936
thorax -6.49443 0.376418 1.67251
lowerneck -23.6214 -3.67635 -0.949392
upperneck 13.5094 -5.06348 2.07487
head 8.10104 -2.22266 0.167764
rclavicle -3.57812e-015 -1.59028e-015
rhumerus -2.19957 17.0244 -90.397
rradius 58.8058
rwrist -47.1516
rhand -5.11106 -57.1604
rfingers 7.12502
rthumb 20.6867 993.922
lclavicle -3.57812e-015 -1.59028e-015
lhumerus 1.24428 -38.0782 95.9514
lradius 61.8471
lwrist 47.4902
lhand -16.4256 1.06531
lfingers 7.12502
lthumb 9.78951 30.8178
rfemur 9.66665 2.12664 13.182
rtibia -17.7371
rfoot -8.07408 -19.2898
rtoes 1.87774
lfemur 6.24125 -3.74299 -14.686
ltibia -11.8352
lfoot -2.02612 15.2796
ltoes -16.0574
470
root -0.711926 18.2704 5.44805 6.16974 0.815883 0.840988
lowerback 13.2148 0.134178 2.02671
upperback 0.926884 0.681386 2.98111
thorax -6.45559 0.318163 1.87888
lowerneck -23.3728 -3.52322 -1.00495
upperneck 13.5213 -4.73505 1.52766
head 8.04505 -2.13196 0.0411809
rclavicle 2.78299e-015 0
rhumerus -3.83199 16.2775 -90.3651
rradius 60.3176
rwrist -48.655
rhand -4.55282 -56.347
rfingers 7.12502
rthumb 21.223 994.795
lclavicle 2.78299e-015 0
lhumerus 1.32526 -39.9402 95.6694
lradius 61.7749
lwrist 45.3847
lhand -15.3259 0.96051
lfingers 7.12502
lthumb 10.8504 30.6602
rfemur 9.95131 2.05664 13.1958
rtibia -17.5839
rfoot -8.33804 -19.1904
rtoes 1.92126
lfemur 6.51263 -3.91628 -14.708
ltibia -11.7462
lfoot -2.19458 15.2352
ltoes -16.0778
471
root -0.704378 18.2661 5.48346 5.96121 0.925227 0.845935
lowerback 12.746 0.0180287 1.99573
upperback 0.744349 0.527518 3.22336
thorax -6.38785 0.247891 2.18102
lowerneck -23.3569 -3.40883 -1.02184
upperneck 13.795 -4.46238 0.915306
head 8.11604 -2.06797 -0.127662
rclavicle -1.11319e-014 -3.97569e-014
rhumerus -5.55574 15.9548 -90.3086
rradius 61.5542
rwrist -49.5594
rhand -4.40394 -53.5861
rfingers 7.12502
rthumb 21.366 997.572
lclavicle -1.11319e-014 -3.97569e-014
lhumerus 1.47667 -41.8958 95.3102
lradius 61.6596
lwrist 43.2309
lhand -14.1445 0.705233
lfingers 7.12502
lthumb 11.9898 30.3418
rfemur 10.268 2.01515 13.1905
rtibia -17.4278
rfoot -8.65831 -19.1171
rtoes 2.11296
lfemur 6.81602 -4.01136 -14.7528
ltibia -11.648
lfoot -2.39121 15.1409
ltoes -15.9655
472
root -0.700141 18.2604 5.5196 5.68708 1.05318 0.842458
lowerback 12.387 -0.12727 1.91773
upperback 0.532797 0.332287 3.44401
thorax -6.40906 0.15845 2.49399
lowerneck -23.2622 -3.24432 -0.92856
upperneck 14.0772 -4.1434 0.240163
head 8.17527 -1.98435 -0.328327
rclavicle 1.03368e-014 1.11319e-014
rhumerus -7.23601 15.0029 -90.2362
rradius 63.4181
rwrist -51.1661
rhand -3.93992 -57.7982
rfingers 7.12502
rthumb 21.8117 993.411
lclavicle 1.03368e-014 1.11319e-014
lhumerus 1.38291 -43.8242 95.0525
lradius 61.7128
lwrist 41.331
lhand -13.0678 0.546128
lfingers 7.12502
lthumb 13.0279 30.1193
rfemur 10.6543 2.04931 13.2143
rtibia -17.2511
rfoot -9.00778 -19.0837
rtoes 2.19707
lfemur 7.14855 -4.08131 -14.7793
ltibia -11.4899
lfoot -2.58305 14.9924
ltoes -16.2268
